name Walk2.mot
datacolumns 19
datarows 20
range 2.10000000 2.11900000
endheader

                time	   L_ground_force_vx	   L_ground_force_vy	   L_ground_force_vz	   L_ground_force_px	   L_ground_force_py	   L_ground_force_pz	   R_ground_force_vx	   R_ground_force_vy	   R_ground_force_vz	   R_ground_force_px	   R_ground_force_py	   R_ground_force_pz	   L_ground_torque_x	   L_ground_torque_y	   L_ground_torque_z	   R_ground_torque_x	   R_ground_torque_y	   R_ground_torque_z	
          2.10000000	        -29.08706599	        538.09360021	         26.62183195	          0.48035701	          0.00000000	          0.21325972	          0.03433052	          0.08475605	          0.00300512	         -0.00010132	          0.00000000	          0.00036539	          0.00000000	         -0.84500635	          0.00000000	          0.00000000	          0.00023202	          0.00000000	
          2.10100000	        -28.61499121	        536.85425852	         26.64385129	          0.48072681	          0.00000000	          0.21319146	          0.03108023	          0.07707439	          0.00277329	         -0.00009850	          0.00000000	          0.00035445	          0.00000000	         -0.86979746	          0.00000000	          0.00000000	          0.00021341	          0.00000000	
          2.10200000	        -28.14646626	        535.67011794	         26.67849603	          0.48109597	          0.00000000	          0.21312322	          0.02798884	          0.06975461	          0.00255070	         -0.00009555	          0.00000000	          0.00034310	          0.00000000	         -0.89433233	          0.00000000	          0.00000000	          0.00019558	          0.00000000	
          2.10300000	        -27.68126012	        534.54126565	         26.72570980	          0.48146442	          0.00000000	          0.21305502	          0.02505454	          0.06279360	          0.00233740	         -0.00009248	          0.00000000	          0.00033142	          0.00000000	         -0.91859944	          0.00000000	          0.00000000	          0.00017853	          0.00000000	
          2.10400000	        -27.21914116	        533.46778486	         26.78538092	          0.48183209	          0.00000000	          0.21298689	          0.02227504	          0.05618717	          0.00213339	         -0.00008933	          0.00000000	          0.00031948	          0.00000000	         -0.94258976	          0.00000000	          0.00000000	          0.00016226	          0.00000000	
          2.10500000	        -26.75987678	        532.44975610	         26.85734398	          0.48219890	          0.00000000	          0.21291886	          0.01964770	          0.04993012	          0.00193868	         -0.00008611	          0.00000000	          0.00030735	          0.00000000	         -0.96629675	          0.00000000	          0.00000000	          0.00014675	          0.00000000	
          2.10600000	        -26.30323300	        531.48725790	         26.94138133	          0.48256476	          0.00000000	          0.21285095	          0.01716950	          0.04401640	          0.00175319	         -0.00008283	          0.00000000	          0.00029508	          0.00000000	         -0.98971634	          0.00000000	          0.00000000	          0.00013201	          0.00000000	
          2.10700000	        -25.84897424	        530.58036689	         27.03722446	          0.48292959	          0.00000000	          0.21278321	          0.01483713	          0.03843916	          0.00157685	         -0.00007953	          0.00000000	          0.00028275	          0.00000000	         -1.01284676	          0.00000000	          0.00000000	          0.00011802	          0.00000000	
          2.10800000	        -25.39686338	        529.72915743	         27.14455562	          0.48329331	          0.00000000	          0.21271567	          0.01264700	          0.03319087	          0.00140954	         -0.00007620	          0.00000000	          0.00027039	          0.00000000	         -1.03568833	          0.00000000	          0.00000000	          0.00010477	          0.00000000	
          2.10900000	        -24.94666229	        528.93370127	         27.26300959	          0.48365584	          0.00000000	          0.21264836	          0.01059529	          0.02826338	          0.00125113	         -0.00007287	          0.00000000	          0.00025807	          0.00000000	         -1.05824317	          0.00000000	          0.00000000	          0.00009226	          0.00000000	
          2.11000000	        -24.49813266	        528.19406745	         27.39217615	          0.48401710	          0.00000000	          0.21258132	          0.00867799	          0.02364806	          0.00110146	         -0.00006954	          0.00000000	          0.00024581	          0.00000000	         -1.08051497	          0.00000000	          0.00000000	          0.00008046	          0.00000000	
          2.11100000	        -24.05103699	        527.51032272	         27.53160313	          0.48437702	          0.00000000	          0.21251459	          0.00689092	          0.01933578	          0.00096036	         -0.00006624	          0.00000000	          0.00023367	          0.00000000	         -1.10250898	          0.00000000	          0.00000000	          0.00006936	          0.00000000	
          2.11200000	        -23.60513909	        526.88253246	         27.68079995	          0.48473553	          0.00000000	          0.21244820	          0.00522975	          0.01531709	          0.00082762	         -0.00006296	          0.00000000	          0.00022168	          0.00000000	         -1.12423198	          0.00000000	          0.00000000	          0.00005894	          0.00000000	
          2.11300000	        -23.16020417	        526.31076182	         27.83924144	          0.48509259	          0.00000000	          0.21238221	          0.00369006	          0.01158221	          0.00070304	         -0.00005973	          0.00000000	          0.00020987	          0.00000000	         -1.14569235	          0.00000000	          0.00000000	          0.00004919	          0.00000000	
          2.11400000	        -22.71599829	        525.79507654	         28.00637190	          0.48544811	          0.00000000	          0.21231664	          0.00226733	          0.00812111	          0.00058640	         -0.00005655	          0.00000000	          0.00019827	          0.00000000	         -1.16690003	          0.00000000	          0.00000000	          0.00004008	          0.00000000	
          2.11500000	        -22.27228775	        525.33554274	         28.18160905	          0.48580207	          0.00000000	          0.21225157	          0.00095701	          0.00492360	          0.00047746	         -0.00005342	          0.00000000	          0.00018691	          0.00000000	         -1.18786630	          0.00000000	          0.00000000	          0.00003159	          0.00000000	
          2.11600000	        -21.82883870	        524.93222547	         28.36434803	          0.48615442	          0.00000000	          0.21218704	         -0.00024553	          0.00197936	          0.00037598	         -0.00005035	          0.00000000	          0.00017581	          0.00000000	         -1.20860372	          0.00000000	          0.00000000	          0.00002370	          0.00000000	
          2.11700000	        -21.38541745	        524.58518632	         28.55396486	          0.48650512	          0.00000000	          0.21212313	         -0.00134489	         -0.00072204	          0.00028170	         -0.00004736	          0.00000000	          0.00016499	          0.00000000	         -1.22912604	          0.00000000	          0.00000000	          0.00001640	          0.00000000	
          2.11800000	        -20.94179119	        524.29448050	         28.74981954	          0.48685414	          0.00000000	          0.21205990	         -0.00234569	         -0.00319102	          0.00019438	         -0.00004444	          0.00000000	          0.00015446	          0.00000000	         -1.24944837	          0.00000000	          0.00000000	          0.00000965	          0.00000000	
          2.11900000	        -20.49772913	        524.06015394	         28.95125859	          0.48720146	          0.00000000	          0.21199741	         -0.00325254	         -0.00543802	          0.00011375	         -0.00004161	          0.00000000	          0.00014425	          0.00000000	         -1.26958730	          0.00000000	          0.00000000	          0.00000344	          0.00000000	
